<svg width="23" height="24" viewBox="0 0 23 24" fill="none" xmlns="http://www.w3.org/2000/svg">
<path d="M4.31283 15C3.45994 15 2.6262 15.2639 1.91705 15.7584C1.20789 16.2529 0.655175 16.9557 0.328787 17.7779C0.00239938 18.6002 -0.0829985 19.505 0.0833925 20.3779C0.249784 21.2508 0.66049 22.0526 1.26358 22.682C1.86666 23.3113 2.63504 23.7399 3.47154 23.9135C4.30805 24.0872 5.17511 23.9981 5.96308 23.6575C6.75105 23.3169 7.42454 22.7401 7.89838 22.0001C8.37222 21.26 8.62513 20.39 8.62513 19.5C8.62513 18.3065 8.1708 17.1619 7.36209 16.318C6.55338 15.4741 5.45653 15 4.31283 15ZM4.31283 22C3.839 22 3.37582 21.8534 2.98184 21.5787C2.58787 21.304 2.2808 20.9135 2.09947 20.4567C1.91815 19.9999 1.8707 19.4972 1.96314 19.0123C2.05558 18.5273 2.28375 18.0819 2.6188 17.7322C2.95385 17.3826 3.38073 17.1445 3.84545 17.048C4.31017 16.9516 4.79187 17.0011 5.22964 17.1903C5.6674 17.3795 6.04156 17.7 6.3048 18.1111C6.56805 18.5222 6.70855 19.0055 6.70855 19.5C6.70855 19.8283 6.64659 20.1534 6.52619 20.4567C6.4058 20.76 6.22933 21.0356 6.00686 21.2678C5.7844 21.4999 5.5203 21.6841 5.22964 21.8097C4.93897 21.9353 4.62744 22 4.31283 22ZM0.280832 9.2925L1.99976 7.5L0.280832 5.7075C0.101018 5.51986 -1.89465e-09 5.26536 0 5C1.89465e-09 4.73464 0.101018 4.48014 0.280832 4.2925C0.460646 4.10486 0.704526 3.99944 0.958822 3.99944C1.21312 3.99944 1.457 4.10486 1.63681 4.2925L3.35454 6.08625L5.07228 4.2925C5.25209 4.10486 5.49597 3.99944 5.75027 3.99944C6.00456 3.99944 6.24844 4.10486 6.42826 4.2925C6.60807 4.48014 6.70909 4.73464 6.70909 5C6.70909 5.26536 6.60807 5.51986 6.42826 5.7075L4.70932 7.5L6.42826 9.2925C6.60807 9.48014 6.70909 9.73464 6.70909 10C6.70909 10.2654 6.60807 10.5199 6.42826 10.7075C6.24844 10.8951 6.00456 11.0006 5.75027 11.0006C5.49597 11.0006 5.25209 10.8951 5.07228 10.7075L3.35454 8.91375L1.63681 10.7075C1.457 10.8951 1.21312 11.0006 0.958822 11.0006C0.704526 11.0006 0.460646 10.8951 0.280832 10.7075C0.101018 10.5199 1.89465e-09 10.2654 0 10C-1.89465e-09 9.73464 0.101018 9.48014 0.280832 9.2925ZM22.7192 21.2925C22.8082 21.3854 22.8788 21.4957 22.927 21.6171C22.9752 21.7385 23 21.8686 23 22C23 22.1314 22.9752 22.2615 22.927 22.3829C22.8788 22.5043 22.8082 22.6146 22.7192 22.7075C22.6301 22.8004 22.5244 22.8741 22.4081 22.9244C22.2918 22.9747 22.1671 23.0006 22.0412 23.0006C21.9153 23.0006 21.7906 22.9747 21.6743 22.9244C21.5579 22.8741 21.4522 22.8004 21.3632 22.7075L19.6455 20.9137L17.9277 22.7075C17.7479 22.8951 17.504 23.0006 17.2497 23.0006C16.9954 23.0006 16.7516 22.8951 16.5717 22.7075C16.3919 22.5199 16.2909 22.2654 16.2909 22C16.2909 21.7346 16.3919 21.4801 16.5717 21.2925L18.2907 19.5L16.5717 17.7075C16.3919 17.5199 16.2909 17.2654 16.2909 17C16.2909 16.7346 16.3919 16.4801 16.5717 16.2925C16.7516 16.1049 16.9954 15.9994 17.2497 15.9994C17.504 15.9994 17.7479 16.1049 17.9277 16.2925L19.6455 18.0862L21.3632 16.2925C21.543 16.1049 21.7869 15.9994 22.0412 15.9994C22.2955 15.9994 22.5394 16.1049 22.7192 16.2925C22.899 16.4801 23 16.7346 23 17C23 17.2654 22.899 17.5199 22.7192 17.7075L21.0002 19.5L22.7192 21.2925ZM17.306 10.1037C16.5658 12.895 14.273 15.3075 11.7324 15.97C11.6564 15.9899 11.5783 15.9999 11.5 16C11.2663 15.9995 11.0409 15.91 10.866 15.7482C10.6912 15.5865 10.579 15.3636 10.5506 15.1216C10.5222 14.8795 10.5795 14.635 10.7118 14.434C10.844 14.2329 11.0421 14.0893 11.2688 14.03C13.1411 13.5413 14.9043 11.6662 15.4613 9.57C15.8434 8.1325 15.847 5.945 13.6993 3.7075L13.4166 3.41375V6C13.4166 6.26522 13.3156 6.51957 13.1359 6.70711C12.9562 6.89464 12.7124 7 12.4583 7C12.2041 7 11.9604 6.89464 11.7807 6.70711C11.601 6.51957 11.5 6.26522 11.5 6V1C11.5 0.734783 11.601 0.48043 11.7807 0.292893C11.9604 0.105357 12.2041 0 12.4583 0H17.2497C17.5039 0 17.7476 0.105357 17.9273 0.292893C18.1071 0.48043 18.208 0.734783 18.208 1C18.208 1.26522 18.1071 1.51957 17.9273 1.70711C17.7476 1.89464 17.5039 2 17.2497 2H14.7714L15.0529 2.2925C17.2378 4.57375 18.0379 7.3475 17.306 10.1037Z" fill="#80c5d6	"/>
</svg>
