<svg width="49" height="49" viewBox="0 0 49 49" fill="none" xmlns="http://www.w3.org/2000/svg">
<rect width="49" height="49" rx="24.5" fill="#80c5d6	"/>
<path d="M18.8004 14.6C17.8456 14.6 16.9299 14.9793 16.2548 15.6544C15.5797 16.3295 15.2004 17.2452 15.2004 18.2C15.2004 19.1548 15.5797 20.0705 16.2548 20.7456C16.9299 21.4207 17.8456 21.8 18.8004 21.8C19.7552 21.8 20.6708 21.4207 21.346 20.7456C22.0211 20.0705 22.4004 19.1548 22.4004 18.2C22.4004 17.2452 22.0211 16.3295 21.346 15.6544C20.6708 14.9793 19.7552 14.6 18.8004 14.6ZM13.6004 18.2C13.6004 16.8209 14.1482 15.4982 15.1234 14.523C16.0986 13.5479 17.4213 13 18.8004 13C20.1795 13 21.5022 13.5479 22.4773 14.523C23.4525 15.4982 24.0004 16.8209 24.0004 18.2C24.0004 19.5791 23.4525 20.9018 22.4773 21.877C21.5022 22.8521 20.1795 23.4 18.8004 23.4C17.4213 23.4 16.0986 22.8521 15.1234 21.877C14.1482 20.9018 13.6004 19.5791 13.6004 18.2ZM13.6004 25C12.7517 25 11.9378 25.3371 11.3376 25.9373C10.7375 26.5374 10.4004 27.3513 10.4004 28.2V28.3344C10.4027 28.428 10.4091 28.5214 10.4196 28.6144C10.533 29.6513 10.9013 30.644 11.4916 31.504C12.6132 33.128 14.7796 34.6 18.8004 34.6C22.8212 34.6 24.9876 33.128 26.1092 31.5056C26.6998 30.6452 27.068 29.6519 27.1812 28.6144C27.1903 28.5213 27.1967 28.4279 27.2004 28.3344V28.2C27.2004 27.3513 26.8632 26.5374 26.2631 25.9373C25.663 25.3371 24.8491 25 24.0004 25H13.6004ZM12.0004 28.2976V28.2C12.0004 27.7757 12.169 27.3687 12.469 27.0686C12.7691 26.7686 13.176 26.6 13.6004 26.6H24.0004C24.4247 26.6 24.8317 26.7686 25.1318 27.0686C25.4318 27.3687 25.6004 27.7757 25.6004 28.2V28.3248L25.5892 28.4576C25.5024 29.2246 25.2288 29.9585 24.7924 30.5952C24.0132 31.7216 22.3796 33 18.8004 33C15.2212 33 13.5876 31.7216 12.8084 30.5952C12.372 29.9585 12.0984 29.2246 12.0116 28.4576L12.002 28.3248L12.0004 28.2976ZM31.2004 17C30.5639 17 29.9534 17.2529 29.5033 17.7029C29.0532 18.153 28.8004 18.7635 28.8004 19.4C28.8004 20.0365 29.0532 20.647 29.5033 21.0971C29.9534 21.5471 30.5639 21.8 31.2004 21.8C31.8369 21.8 32.4474 21.5471 32.8974 21.0971C33.3475 20.647 33.6004 20.0365 33.6004 19.4C33.6004 18.7635 33.3475 18.153 32.8974 17.7029C32.4474 17.2529 31.8369 17 31.2004 17ZM27.2004 19.4C27.2004 18.3391 27.6218 17.3217 28.372 16.5716C29.1221 15.8214 30.1395 15.4 31.2004 15.4C32.2613 15.4 33.2787 15.8214 34.0288 16.5716C34.779 17.3217 35.2004 18.3391 35.2004 19.4C35.2004 20.4609 34.779 21.4783 34.0288 22.2284C33.2787 22.9786 32.2613 23.4 31.2004 23.4C30.1395 23.4 29.1221 22.9786 28.372 22.2284C27.6218 21.4783 27.2004 20.4609 27.2004 19.4ZM32.9348 27.5312L33.3876 26.3312C33.8004 25.2416 35.0868 24.704 36.1716 25.1664L36.7924 25.432C37.5492 25.7552 38.1748 26.3408 38.3076 27.128C39.0388 31.488 35.2548 37.6896 30.8996 39.272C30.1124 39.5568 29.2628 39.336 28.5876 38.8784L28.034 38.5024C27.8067 38.3493 27.6153 38.1487 27.4731 37.9145C27.3309 37.6803 27.2411 37.418 27.2101 37.1457C27.1791 36.8734 27.2075 36.5977 27.2934 36.3374C27.3793 36.0772 27.5206 35.8387 27.7076 35.6384L28.5796 34.6672C28.7844 34.4416 29.0457 34.2748 29.3366 34.184C29.6274 34.0931 29.9372 34.0815 30.234 34.1504L32.194 34.6144C33.7481 33.6437 34.5812 32.2784 34.6932 30.5184L33.2884 29.144C33.0786 28.939 32.9333 28.677 32.8705 28.3905C32.8077 28.1039 32.83 27.8052 32.9348 27.5312Z" fill="white"/>
</svg>
