<svg width="28" height="28" viewBox="0 0 28 28" fill="none" xmlns="http://www.w3.org/2000/svg">
<path d="M12.833 15.1667C12.6023 15.1667 12.3767 15.2352 12.1848 15.3634C11.993 15.4916 11.8435 15.6738 11.7551 15.8869C11.6668 16.1001 11.6437 16.3347 11.6888 16.561C11.7338 16.7873 11.8449 16.9952 12.0081 17.1584C12.1712 17.3215 12.3791 17.4326 12.6054 17.4777C12.8317 17.5227 13.0663 17.4996 13.2795 17.4113C13.4927 17.323 13.6749 17.1734 13.8031 16.9816C13.9313 16.7897 13.9997 16.5642 13.9997 16.3334C13.9997 16.024 13.8768 15.7272 13.658 15.5085C13.4392 15.2897 13.1424 15.1667 12.833 15.1667ZM8.16634 15.1667C7.9356 15.1667 7.71003 15.2352 7.51818 15.3634C7.32632 15.4916 7.17678 15.6738 7.08848 15.8869C7.00018 16.1001 6.97708 16.3347 7.02209 16.561C7.06711 16.7873 7.17822 16.9952 7.34138 17.1584C7.50455 17.3215 7.71243 17.4326 7.93874 17.4777C8.16505 17.5227 8.39962 17.4996 8.61281 17.4113C8.82599 17.323 9.00819 17.1734 9.13639 16.9816C9.26458 16.7897 9.33301 16.5642 9.33301 16.3334C9.33301 16.024 9.21009 15.7272 8.9913 15.5085C8.77251 15.2897 8.47576 15.1667 8.16634 15.1667ZM25.6663 4.66675C25.6663 3.73849 25.2976 2.84825 24.6412 2.19187C23.9848 1.5355 23.0946 1.16675 22.1663 1.16675H5.83301C4.90475 1.16675 4.01451 1.5355 3.35813 2.19187C2.70176 2.84825 2.33301 3.73849 2.33301 4.66675V9.33341C2.33815 10.1968 2.66225 11.0278 3.24301 11.6667C2.66225 12.3057 2.33815 13.1367 2.33301 14.0001V18.6667C2.33301 19.595 2.70176 20.4852 3.35813 21.1416C4.01451 21.798 4.90475 22.1667 5.83301 22.1667H12.833V24.5001H3.49967C3.19026 24.5001 2.89351 24.623 2.67472 24.8418C2.45592 25.0606 2.33301 25.3573 2.33301 25.6667C2.33301 25.9762 2.45592 26.2729 2.67472 26.4917C2.89351 26.7105 3.19026 26.8334 3.49967 26.8334H24.4997C24.8091 26.8334 25.1058 26.7105 25.3246 26.4917C25.5434 26.2729 25.6663 25.9762 25.6663 25.6667C25.6663 25.3573 25.5434 25.0606 25.3246 24.8418C25.1058 24.623 24.8091 24.5001 24.4997 24.5001H15.1663V22.1667H22.1663C23.0946 22.1667 23.9848 21.798 24.6412 21.1416C25.2976 20.4852 25.6663 19.595 25.6663 18.6667V14.0001C25.6612 13.1367 25.3371 12.3057 24.7563 11.6667C25.3371 11.0278 25.6612 10.1968 25.6663 9.33341V4.66675ZM23.333 18.6667C23.333 18.9762 23.2101 19.2729 22.9913 19.4917C22.7725 19.7105 22.4758 19.8334 22.1663 19.8334H5.83301C5.52359 19.8334 5.22684 19.7105 5.00805 19.4917C4.78926 19.2729 4.66634 18.9762 4.66634 18.6667V14.0001C4.66634 13.6907 4.78926 13.3939 5.00805 13.1751C5.22684 12.9563 5.52359 12.8334 5.83301 12.8334H22.1663C22.4758 12.8334 22.7725 12.9563 22.9913 13.1751C23.2101 13.3939 23.333 13.6907 23.333 14.0001V18.6667ZM23.333 9.33341C23.333 9.64283 23.2101 9.93958 22.9913 10.1584C22.7725 10.3772 22.4758 10.5001 22.1663 10.5001H5.83301C5.52359 10.5001 5.22684 10.3772 5.00805 10.1584C4.78926 9.93958 4.66634 9.64283 4.66634 9.33341V4.66675C4.66634 4.35733 4.78926 4.06058 5.00805 3.84179C5.22684 3.623 5.52359 3.50008 5.83301 3.50008H22.1663C22.4758 3.50008 22.7725 3.623 22.9913 3.84179C23.2101 4.06058 23.333 4.35733 23.333 4.66675V9.33341ZM12.833 5.83341C12.6023 5.83341 12.3767 5.90184 12.1848 6.03003C11.993 6.15823 11.8435 6.34044 11.7551 6.55362C11.6668 6.7668 11.6437 7.00138 11.6888 7.22769C11.7338 7.454 11.8449 7.66188 12.0081 7.82504C12.1712 7.9882 12.3791 8.09931 12.6054 8.14433C12.8317 8.18935 13.0663 8.16624 13.2795 8.07794C13.4927 7.98964 13.6749 7.8401 13.8031 7.64825C13.9313 7.45639 13.9997 7.23083 13.9997 7.00008C13.9997 6.69066 13.8768 6.39392 13.658 6.17512C13.4392 5.95633 13.1424 5.83341 12.833 5.83341ZM8.16634 5.83341C7.9356 5.83341 7.71003 5.90184 7.51818 6.03003C7.32632 6.15823 7.17678 6.34044 7.08848 6.55362C7.00018 6.7668 6.97708 7.00138 7.02209 7.22769C7.06711 7.454 7.17822 7.66188 7.34138 7.82504C7.50455 7.9882 7.71243 8.09931 7.93874 8.14433C8.16505 8.18935 8.39962 8.16624 8.61281 8.07794C8.82599 7.98964 9.00819 7.8401 9.13639 7.64825C9.26458 7.45639 9.33301 7.23083 9.33301 7.00008C9.33301 6.69066 9.21009 6.39392 8.9913 6.17512C8.77251 5.95633 8.47576 5.83341 8.16634 5.83341Z" fill="#80c5d6	"/>
</svg>
