<svg width="49" height="49" viewBox="0 0 49 49" fill="none" xmlns="http://www.w3.org/2000/svg">
<rect width="49" height="49" rx="24.5" fill="#80c5d6	"/>
<path d="M23.9998 32.1996C23.1953 32.1998 22.4203 31.8969 21.829 31.3513C21.2378 30.8058 20.8738 30.0575 20.8094 29.2556C18.6753 28.5002 16.8767 27.0152 15.731 25.0626C14.5854 23.11 14.1664 20.8155 14.548 18.584C14.9296 16.3526 16.0873 14.3277 17.8167 12.8668C19.5461 11.4059 21.736 10.6029 23.9998 10.5996C26.4076 10.5993 28.7277 11.5037 30.4999 13.1337C32.2721 14.7637 33.3672 17.0002 33.5678 19.3996C33.5745 19.5037 33.5595 19.608 33.5236 19.706C33.4878 19.8039 33.4321 19.8934 33.3598 19.9686C33.2876 20.0438 33.2005 20.1032 33.1041 20.143C33.0077 20.1828 32.9041 20.202 32.7998 20.1996C32.5855 20.1942 32.3808 20.1094 32.2256 19.9615C32.0703 19.8137 31.9756 19.6134 31.9598 19.3996C31.8173 17.9849 31.3004 16.6338 30.4622 15.4853C29.624 14.3368 28.4949 13.4325 27.1911 12.8653C25.8872 12.2982 24.4558 12.0888 23.0442 12.2587C21.6325 12.4286 20.2917 12.9716 19.1597 13.8319C18.0276 14.6922 17.1453 15.8386 16.6036 17.1532C16.0618 18.4678 15.8802 19.903 16.0774 21.3111C16.2746 22.7191 16.8436 24.0492 17.7256 25.1644C18.6077 26.2795 19.771 27.1394 21.0958 27.6556C21.3369 27.1347 21.7136 26.6883 22.1865 26.363C22.6594 26.0378 23.2111 25.8457 23.7837 25.8069C24.3563 25.7681 24.9289 25.8841 25.4413 26.1426C25.9537 26.4012 26.3872 26.7928 26.6963 27.2764C27.0053 27.76 27.1787 28.3179 27.1981 28.8915C27.2174 29.4651 27.0822 30.0334 26.8065 30.5368C26.5308 31.0402 26.1248 31.4602 25.631 31.7527C25.1372 32.0453 24.5738 32.1996 23.9998 32.1996ZM16.0142 28.1996H16.1598C16.7838 28.8092 17.4766 29.3468 18.227 29.7996H16.0142C15.1166 29.7996 14.3998 30.5148 14.3998 31.3996C14.3998 33.494 15.395 35.054 17.0766 36.1244C18.7886 37.2172 21.2238 37.7996 23.9998 37.7996C26.7758 37.7996 29.211 37.2172 30.923 36.1244C32.603 35.0524 33.5998 33.4956 33.5998 31.3996C33.5998 30.9753 33.4312 30.5683 33.1312 30.2682C32.8311 29.9682 32.4242 29.7996 31.9998 29.7996H28.7342C28.8237 29.27 28.8237 28.7292 28.7342 28.1996H31.9998C32.8485 28.1996 33.6624 28.5368 34.2625 29.1369C34.8627 29.737 35.1998 30.5509 35.1998 31.3996C35.1998 34.1052 33.867 36.1452 31.7838 37.4748C29.7326 38.782 26.9678 39.3996 23.9998 39.3996C21.0318 39.3996 18.267 38.782 16.2158 37.4748C14.1326 36.1468 12.7998 34.1036 12.7998 31.3996C12.7998 29.6188 14.2446 28.1996 16.0142 28.1996ZM30.3998 20.1996C30.4002 21.2822 30.1259 22.3472 29.6026 23.295C29.0793 24.2428 28.3242 25.0423 27.4078 25.6188C26.9807 25.1881 26.4757 24.8423 25.9198 24.5996C26.9305 24.1585 27.7585 23.3829 28.2645 22.4031C28.7706 21.4233 28.9239 20.2991 28.6986 19.2196C28.4733 18.1402 27.8831 17.1712 27.0274 16.4756C26.1717 15.78 25.1026 15.4003 23.9998 15.4003C22.8971 15.4003 21.8279 15.78 20.9722 16.4756C20.1165 17.1712 19.5264 18.1402 19.3011 19.2196C19.0758 20.2991 19.229 21.4233 19.7351 22.4031C20.2411 23.3829 21.0691 24.1585 22.0798 24.5996C21.5198 24.8444 21.0158 25.1916 20.5918 25.6188C19.3765 24.8545 18.4534 23.7038 17.971 22.3516C17.7249 21.6608 17.5993 20.9329 17.5998 20.1996C17.5998 18.5022 18.2741 16.8744 19.4743 15.6741C20.6746 14.4739 22.3024 13.7996 23.9998 13.7996C25.6972 13.7996 27.3251 14.4739 28.5253 15.6741C29.7255 16.8744 30.3998 18.5022 30.3998 20.1996Z" fill="white"/>
</svg>
