<svg width="28" height="28" viewBox="0 0 28 28" fill="none" xmlns="http://www.w3.org/2000/svg">
<path d="M18.1895 21L21.2205 26.25H19.201L16.17 21H11.8405L8.8095 26.25H6.79L9.821 21H4.375C4.14294 21 3.92038 20.9078 3.75628 20.7437C3.59219 20.5796 3.5 20.3571 3.5 20.125V5.25H1.75C1.51794 5.25 1.29538 5.15781 1.13128 4.99372C0.967187 4.82962 0.875 4.60706 0.875 4.375C0.875 4.14294 0.967187 3.92038 1.13128 3.75628C1.29538 3.59219 1.51794 3.5 1.75 3.5H26.25C26.4821 3.5 26.7046 3.59219 26.8687 3.75628C27.0328 3.92038 27.125 4.14294 27.125 4.375C27.125 4.60706 27.0328 4.82962 26.8687 4.99372C26.7046 5.15781 26.4821 5.25 26.25 5.25H24.5V20.125C24.5 20.3571 24.4078 20.5796 24.2437 20.7437C24.0796 20.9078 23.8571 21 23.625 21H18.1895ZM22.75 5.25H5.25V19.25H22.75V5.25ZM9.625 12.25C9.85706 12.25 10.0796 12.3422 10.2437 12.5063C10.4078 12.6704 10.5 12.8929 10.5 13.125V14.875C10.5 15.1071 10.4078 15.3296 10.2437 15.4937C10.0796 15.6578 9.85706 15.75 9.625 15.75C9.39294 15.75 9.17038 15.6578 9.00628 15.4937C8.84219 15.3296 8.75 15.1071 8.75 14.875V13.125C8.75 12.8929 8.84219 12.6704 9.00628 12.5063C9.17038 12.3422 9.39294 12.25 9.625 12.25ZM14 10.5C14.2321 10.5 14.4546 10.5922 14.6187 10.7563C14.7828 10.9204 14.875 11.1429 14.875 11.375V14.875C14.875 15.1071 14.7828 15.3296 14.6187 15.4937C14.4546 15.6578 14.2321 15.75 14 15.75C13.7679 15.75 13.5454 15.6578 13.3813 15.4937C13.2172 15.3296 13.125 15.1071 13.125 14.875V11.375C13.125 11.1429 13.2172 10.9204 13.3813 10.7563C13.5454 10.5922 13.7679 10.5 14 10.5ZM18.375 8.75C18.6071 8.75 18.8296 8.84219 18.9937 9.00628C19.1578 9.17038 19.25 9.39294 19.25 9.625V14.875C19.25 15.1071 19.1578 15.3296 18.9937 15.4937C18.8296 15.6578 18.6071 15.75 18.375 15.75C18.1429 15.75 17.9204 15.6578 17.7563 15.4937C17.5922 15.3296 17.5 15.1071 17.5 14.875V9.625C17.5 9.39294 17.5922 9.17038 17.7563 9.00628C17.9204 8.84219 18.1429 8.75 18.375 8.75Z" fill="#80c5d6	"/>
</svg>
