<svg width="49" height="49" viewBox="0 0 49 49" fill="none" xmlns="http://www.w3.org/2000/svg">
<rect width="49" height="49" rx="24.5" fill="#80c5d6	"/>
<path fill-rule="evenodd" clip-rule="evenodd" d="M23.622 17.2218L25.3286 15.5151C26.7025 14.1391 29.1153 13.1855 31.511 12.8421C32.5731 12.6754 33.6535 12.661 34.7196 12.7994C35.6646 12.9402 36.2428 13.2175 36.5116 13.4885C36.7825 13.7573 37.0598 14.3354 37.2006 15.2805C37.3372 16.1914 37.3265 17.3071 37.158 18.489C36.8166 20.8847 35.8609 23.2975 34.4849 24.6714L25.0001 34.1583L22.5553 31.7135C22.4563 31.6144 22.3387 31.5357 22.2092 31.4819C22.0798 31.4282 21.941 31.4005 21.8008 31.4004C21.6607 31.4003 21.5219 31.4278 21.3924 31.4814C21.2628 31.5349 21.1451 31.6134 21.046 31.7125C20.8457 31.9125 20.733 32.1839 20.7328 32.4669C20.7327 32.6071 20.7602 32.7459 20.8138 32.8754C20.8673 33.0049 20.9459 33.1226 21.0449 33.2218L24.2449 36.4218C24.344 36.5211 24.4617 36.5999 24.5913 36.6537C24.7209 36.7075 24.8598 36.7352 25.0001 36.7352C25.1404 36.7352 25.2793 36.7075 25.4089 36.6537C25.5385 36.5999 25.6562 36.5211 25.7553 36.4218L26.9222 35.2527L29.4182 39.4149C29.5015 39.5542 29.6154 39.6728 29.7514 39.7614C29.8874 39.8501 30.0418 39.9065 30.2029 39.9265C30.364 39.9465 30.5275 39.9294 30.681 39.8766C30.8345 39.8238 30.9739 39.7366 31.0886 39.6218L35.3553 35.3551C35.4725 35.2378 35.5606 35.0947 35.6129 34.9373C35.6651 34.78 35.6799 34.6126 35.6561 34.4485L34.6641 27.5109L35.9953 26.1818C37.8193 24.3557 38.8924 21.4351 39.27 18.7898C39.462 17.4522 39.4833 16.1231 39.3105 14.9626C39.1398 13.8362 38.7644 12.7226 38.022 11.9781C37.2774 11.2357 36.1638 10.8581 35.0353 10.6895C33.7648 10.5213 32.4767 10.5357 31.2102 10.7322C28.5628 11.1055 25.6401 12.1786 23.8182 14.0026L22.4892 15.3338L15.5516 14.3418C15.3875 14.318 15.2201 14.3328 15.0627 14.385C14.9053 14.4372 14.7622 14.5254 14.6449 14.6426L10.3782 18.9093C10.2634 19.024 10.1762 19.1634 10.1234 19.3169C10.0706 19.4704 10.0536 19.6339 10.0735 19.795C10.0935 19.9561 10.1499 20.1105 10.2386 20.2465C10.3273 20.3825 10.4458 20.4964 10.5852 20.5797L14.7452 23.0757L13.5782 24.2426C13.4789 24.3417 13.4001 24.4594 13.3463 24.589C13.2925 24.7186 13.2649 24.8575 13.2649 24.9978C13.2649 25.1381 13.2925 25.277 13.3463 25.4066C13.4001 25.5362 13.4789 25.6539 13.5782 25.753L16.7782 28.953C16.8774 29.0522 16.9951 29.1308 17.1247 29.1845C17.2543 29.2382 17.3932 29.2658 17.5334 29.2658C17.6737 29.2658 17.8126 29.2382 17.9421 29.1845C18.0717 29.1308 18.1895 29.0522 18.2886 28.953C18.3878 28.8538 18.4665 28.7361 18.5201 28.6065C18.5738 28.4769 18.6014 28.338 18.6014 28.1978C18.6014 28.0575 18.5738 27.9187 18.5201 27.7891C18.4665 27.6595 18.3878 27.5418 18.2886 27.4426L15.8417 24.9999L17.222 23.6218L23.622 17.2218ZM30.5446 37.1471L28.4753 33.6975L32.7782 29.3967L33.4694 34.2223L30.5446 37.1471ZM16.3025 21.5226L20.6033 17.2218L15.7777 16.5306L12.855 19.4533L16.3025 21.5226ZM14.0198 31.0885C14.119 30.9894 14.1977 30.8718 14.2514 30.7424C14.3052 30.6129 14.3329 30.4742 14.333 30.334C14.3331 30.1939 14.3055 30.0551 14.252 29.9255C14.1985 29.796 14.1199 29.6783 14.0209 29.5791C13.9219 29.48 13.8043 29.4013 13.6748 29.3475C13.5454 29.2938 13.4066 29.2661 13.2664 29.266C13.1263 29.2659 12.9875 29.2934 12.858 29.347C12.7284 29.4005 12.6107 29.479 12.5116 29.5781L10.3782 31.7114C10.1782 31.9117 10.066 32.1832 10.0662 32.4663C10.0664 32.7493 10.179 33.0207 10.3793 33.2207C10.5796 33.4207 10.8511 33.533 11.1342 33.5328C11.4172 33.5326 11.6886 33.42 11.8886 33.2197L14.0198 31.0885ZM17.2198 34.2885C17.3217 34.1901 17.403 34.0724 17.4589 33.9422C17.5148 33.8121 17.5442 33.6721 17.5454 33.5305C17.5467 33.3889 17.5197 33.2484 17.466 33.1173C17.4124 32.9862 17.3332 32.8671 17.233 32.767C17.1329 32.6668 17.0138 32.5876 16.8827 32.534C16.7516 32.4804 16.6112 32.4534 16.4695 32.4546C16.3279 32.4558 16.1879 32.4853 16.0578 32.5412C15.9277 32.5971 15.81 32.6783 15.7116 32.7802L11.4449 37.0469C11.2449 37.2472 11.1326 37.5187 11.1328 37.8017C11.133 38.0848 11.2457 38.3562 11.446 38.5562C11.6463 38.7562 11.9178 38.8685 12.2008 38.8683C12.4839 38.8681 12.7553 38.7554 12.9553 38.5551L17.2198 34.2885ZM20.4198 37.4885C20.519 37.3894 20.5977 37.2718 20.6514 37.1424C20.7052 37.0129 20.7329 36.8742 20.733 36.734C20.7331 36.5939 20.7055 36.4551 20.652 36.3255C20.5985 36.196 20.5199 36.0783 20.4209 35.9791C20.3219 35.88 20.2043 35.8013 20.0748 35.7475C19.9454 35.6938 19.8066 35.6661 19.6664 35.666C19.5263 35.6659 19.3875 35.6934 19.258 35.747C19.1284 35.8005 19.0107 35.879 18.9116 35.9781L16.7782 38.1114C16.5782 38.3117 16.466 38.5832 16.4662 38.8663C16.4664 39.1493 16.579 39.4207 16.7793 39.6207C16.9796 39.8207 17.2511 39.933 17.5342 39.9328C17.8172 39.9326 18.0886 39.82 18.2886 39.6197L20.4198 37.4885ZM29.2668 23.3978C29.6167 23.3978 29.9632 23.3289 30.2864 23.195C30.6097 23.0611 30.9034 22.8648 31.1509 22.6174C31.3983 22.3699 31.5946 22.0762 31.7285 21.7529C31.8624 21.4297 31.9313 21.0832 31.9313 20.7333C31.9313 20.3834 31.8624 20.0369 31.7285 19.7136C31.5946 19.3903 31.3983 19.0966 31.1509 18.8492C30.9034 18.6017 30.6097 18.4055 30.2864 18.2716C29.9632 18.1376 29.6167 18.0687 29.2668 18.0687C28.5601 18.0687 27.8823 18.3495 27.3827 18.8492C26.883 19.3488 26.6022 20.0266 26.6022 20.7333C26.6022 21.4399 26.883 22.1177 27.3827 22.6174C27.8823 23.1171 28.5601 23.3978 29.2668 23.3978Z" fill="white"/>
</svg>
