<svg width="28" height="28" viewBox="0 0 28 28" fill="none" xmlns="http://www.w3.org/2000/svg">
<path d="M7 5.25C7 4.32174 7.36875 3.4315 8.02513 2.77513C8.6815 2.11875 9.57174 1.75 10.5 1.75H16.7755C17.1203 1.74984 17.4617 1.81761 17.7803 1.94943C18.0989 2.08125 18.3884 2.27453 18.6323 2.51825L23.7318 7.61775C24.2235 8.11125 24.5 8.778 24.5 9.4745V22.75C24.5 23.6783 24.1313 24.5685 23.4749 25.2249C22.8185 25.8813 21.9283 26.25 21 26.25H17.031C17.3382 25.7179 17.5 25.1144 17.5 24.5H21C21.4641 24.5 21.9092 24.3156 22.2374 23.9874C22.5656 23.6592 22.75 23.2141 22.75 22.75V10.5H18.375C17.6788 10.5 17.0111 10.2234 16.5188 9.73116C16.0266 9.23887 15.75 8.57119 15.75 7.875V3.5H10.5C10.0359 3.5 9.59075 3.68437 9.26256 4.01256C8.93437 4.34075 8.75 4.78587 8.75 5.25V8.82175C8.13382 8.92592 7.54119 9.13927 7 9.45175V5.25ZM18.375 8.75H22.3878L17.5 3.86225V7.875C17.5 8.10706 17.5922 8.32962 17.7563 8.49372C17.9204 8.65781 18.1429 8.75 18.375 8.75ZM21 21.875C21 22.1071 20.9078 22.3296 20.7437 22.4937C20.5796 22.6578 20.3571 22.75 20.125 22.75C19.8929 22.75 19.6704 22.6578 19.5063 22.4937C19.3422 22.3296 19.25 22.1071 19.25 21.875V14.875C19.25 14.6429 19.3422 14.4204 19.5063 14.2563C19.6704 14.0922 19.8929 14 20.125 14C20.3571 14 20.5796 14.0922 20.7437 14.2563C20.9078 14.4204 21 14.6429 21 14.875V21.875ZM6.125 14V15.75H5.25C4.78587 15.75 4.34075 15.9344 4.01256 16.2626C3.68437 16.5908 3.5 17.0359 3.5 17.5V24.5C3.5 24.9641 3.68437 25.4092 4.01256 25.7374C4.34075 26.0656 4.78587 26.25 5.25 26.25H14C14.4641 26.25 14.9092 26.0656 15.2374 25.7374C15.5656 25.4092 15.75 24.9641 15.75 24.5V17.5C15.75 17.0359 15.5656 16.5908 15.2374 16.2626C14.9092 15.9344 14.4641 15.75 14 15.75H13.125V14C13.125 13.0717 12.7563 12.1815 12.0999 11.5251C11.4435 10.8687 10.5533 10.5 9.625 10.5C8.69674 10.5 7.8065 10.8687 7.15013 11.5251C6.49375 12.1815 6.125 13.0717 6.125 14ZM7.875 15.75V14C7.875 13.5359 8.05937 13.0908 8.38756 12.7626C8.71575 12.4344 9.16087 12.25 9.625 12.25C10.0891 12.25 10.5342 12.4344 10.8624 12.7626C11.1906 13.0908 11.375 13.5359 11.375 14V15.75H7.875ZM9.625 19.6875C9.9731 19.6875 10.3069 19.8258 10.5531 20.0719C10.7992 20.3181 10.9375 20.6519 10.9375 21C10.9375 21.3481 10.7992 21.6819 10.5531 21.9281C10.3069 22.1742 9.9731 22.3125 9.625 22.3125C9.2769 22.3125 8.94306 22.1742 8.69692 21.9281C8.45078 21.6819 8.3125 21.3481 8.3125 21C8.3125 20.6519 8.45078 20.3181 8.69692 20.0719C8.94306 19.8258 9.2769 19.6875 9.625 19.6875Z" fill="#80c5d6	"/>
</svg>
