<svg width="261" height="80" viewBox="0 0 261 80" fill="none" xmlns="http://www.w3.org/2000/svg">
<path fill-rule="evenodd" clip-rule="evenodd" d="M1.5563 54.489C0.762065 53.2362 0.750066 51.6405 1.52537 50.3757L30.7171 2.75823C32.3407 0.109778 36.2613 0.341353 37.5619 3.16251L64.2299 61.0116C65.2192 63.1581 64.0803 65.6835 61.8163 66.3627L20.3322 78.808C18.6631 79.3086 16.8647 78.6376 15.9318 77.1659L1.5563 54.489ZM34.0851 16.6812C34.3664 15.2804 36.2858 15.0784 36.8526 16.3899L55.2478 58.9554C55.594 59.7568 55.1631 60.6811 54.3265 60.9306L25.6643 69.4867C24.6107 69.8011 23.6015 68.8807 23.818 67.8025L34.0851 16.6812ZM140.71 60.6269H148.859V30.7556H140.71V60.6269ZM140.363 23.0345C140.363 20.3815 141.842 19.0541 144.799 19.0541C147.755 19.0541 149.234 20.3815 149.234 23.0345C149.234 24.2996 148.864 25.2836 148.125 25.9874C147.386 26.6913 146.277 27.0422 144.799 27.0422C141.842 27.0422 140.363 25.7063 140.363 23.0345ZM252.171 46.7877L249.017 46.8943C246.648 46.9661 244.885 47.3943 243.727 48.1773C242.569 48.9615 241.991 50.154 241.991 51.7578C241.991 54.055 243.309 55.2043 245.945 55.2043C247.832 55.2043 249.343 54.6616 250.473 53.574C251.604 52.4881 252.171 51.0454 252.171 49.2454V46.7877ZM254.575 60.628L252.999 56.5666H252.785C251.413 58.2948 250.001 59.4931 248.549 60.1612C247.098 60.8289 245.206 61.1621 242.873 61.1621C240.004 61.1621 237.747 60.343 236.099 58.7044C234.452 57.0666 233.628 54.7325 233.628 51.7039C233.628 48.5341 234.736 46.1963 236.953 44.6905C239.173 43.1856 242.516 42.3527 246.987 42.1922L252.171 42.032V40.7224C252.171 37.695 250.62 36.1805 247.521 36.1805C245.134 36.1805 242.329 36.9013 239.105 38.3448L236.406 32.8407C239.844 31.0427 243.657 30.1418 247.842 30.1418C251.85 30.1418 254.922 31.0153 257.06 32.7606C259.197 34.5062 260.266 37.161 260.266 40.7224V60.628H254.575ZM209.833 60.628H201.684V43.1807C201.684 41.0259 201.322 39.41 200.603 38.3316C199.88 37.254 198.745 36.7146 197.195 36.7146C195.112 36.7146 193.597 37.4814 192.653 39.0126C191.709 40.5449 191.237 43.0657 191.237 46.5744V60.628H183.087V30.7565H189.313L190.409 34.5776H190.863C191.664 33.2067 192.823 32.1332 194.336 31.3585C195.851 30.583 197.587 30.1954 199.547 30.1954C204.018 30.1954 207.045 31.6565 208.631 34.5776H209.352C210.154 33.188 211.334 32.1104 212.893 31.3444C214.452 30.5784 216.21 30.1954 218.17 30.1954C221.554 30.1954 224.115 31.0643 225.851 32.8009C227.588 34.5379 228.456 37.3212 228.456 41.1495V60.628H220.28V43.1807C220.28 41.0259 219.919 39.41 219.199 38.3316C218.476 37.254 217.341 36.7146 215.791 36.7146C213.797 36.7146 212.305 37.4278 211.315 38.8524C210.328 40.2777 209.833 42.5392 209.833 45.6384V60.628ZM174.356 58.7577C176.486 57.1548 177.55 54.8216 177.55 51.7572C177.55 50.28 177.292 49.0053 176.775 47.9364C176.258 46.8675 175.456 45.924 174.371 45.1041C173.285 44.2853 171.574 43.404 169.24 42.4596C166.622 41.4086 164.926 40.6152 164.15 40.0812C163.377 39.5472 162.988 38.9152 162.988 38.184C162.988 36.884 164.191 36.2339 166.595 36.2339C167.949 36.2339 169.276 36.4396 170.576 36.848C171.876 37.2584 173.275 37.7829 174.771 38.4247L177.229 32.547C173.827 30.9799 170.327 30.196 166.729 30.196C162.952 30.196 160.036 30.9213 157.979 32.3733C155.921 33.8252 154.892 35.8782 154.892 38.5313C154.892 40.0812 155.138 41.387 155.628 42.4464C156.117 43.5061 156.901 44.4456 157.979 45.2646C159.056 46.0845 160.744 46.975 163.042 47.9364C164.644 48.6137 165.928 49.2062 166.889 49.7137C167.851 50.2215 168.528 50.6762 168.92 51.0762C169.312 51.4771 169.508 51.9979 169.508 52.6394C169.508 54.3489 168.029 55.2037 165.072 55.2037C163.629 55.2037 161.96 54.9631 160.063 54.483C158.165 54.0017 156.46 53.4054 154.946 52.6921V59.4257C156.282 59.9955 157.716 60.4275 159.248 60.722C160.78 61.0154 162.631 61.1623 164.805 61.1623C169.044 61.1623 172.228 60.3606 174.356 58.7577ZM136.387 30.4357C135.656 30.2755 134.739 30.1954 133.635 30.1954C131.782 30.1954 130.068 30.7075 128.492 31.732C126.915 32.7568 125.663 34.1059 124.737 35.7794H124.337L123.134 30.7565H116.962V60.628H125.112V45.4251C125.112 43.0205 125.837 41.1495 127.288 39.8138C128.741 38.4777 130.766 37.8097 133.368 37.8097C134.312 37.8097 135.113 37.8993 135.773 38.0768L136.387 30.4357ZM92.9763 39.9472H95.7017C98.249 39.9472 100.154 39.4443 101.419 38.4376C102.684 37.4319 103.316 35.9658 103.316 34.0422C103.316 32.1015 102.786 30.6675 101.727 29.7409C100.666 28.8144 99.0058 28.3513 96.7433 28.3513H92.9763V39.9472ZM111.679 33.7488C111.679 37.9529 110.366 41.168 107.737 43.3937C105.111 45.6211 101.375 46.7335 96.5303 46.7335H92.9763V60.6275H84.6937V21.5652H97.1709C101.91 21.5652 105.512 22.5851 107.979 24.6248C110.446 26.6645 111.679 29.7063 111.679 33.7488Z" fill="black"/>
</svg>
