<svg width="273" height="64" viewBox="0 0 273 64" fill="none" xmlns="http://www.w3.org/2000/svg">
<g clip-path="url(#clip0_2940_4467)">
<path d="M10.2328 39.9711C10.2328 44.401 11.3467 45.1944 14.5574 46.9168V47.4458H0.201172V46.9168C3.28079 45.1978 4.32915 44.4044 4.32915 39.9711V8.616C4.32915 4.18601 3.28079 3.39259 0.201172 1.67349V1.14453H20.9165C30.4219 1.14453 38.0915 4.38437 38.0915 13.3825C38.0915 21.5853 31.2769 24.8926 24.5215 24.9588V25.2232C30.3531 25.9504 33.1752 28.7936 34.7484 33.6242L36.6486 39.1783C38.1557 43.8727 40.2524 45.3307 44.1183 46.9183V47.4471H33.6358C32.391 44.7362 31.9978 43.5461 30.7528 40.3029L28.6561 34.0215C26.887 28.8644 25.1177 26.3479 18.823 26.3479H10.2354L10.2328 39.9711ZM19.9349 23.6977C26.1597 23.6977 31.5378 21.3175 31.5378 13.4447C31.5378 6.50216 26.8201 3.72054 19.9349 3.72054H10.2328V23.6977H19.9349Z" fill="black"/>
<path d="M51.731 35.1294C51.731 39.7032 53.5743 44.0159 58.775 44.0159C63.9758 44.0159 68.0614 39.5746 68.0614 31.7469V21.335C68.0614 17.623 66.1523 16.3635 63.519 14.7063V14.3086H73.993V40.0366C73.993 44.5443 74.9146 45.1407 77.8113 47.0002V47.4641H68.0647V39.108C66.2215 44.9445 62.1398 48.1277 56.407 48.1277C49.6264 48.1277 45.8686 43.6201 45.8686 36.3889V21.335C45.8686 17.623 43.8936 16.3635 41.3262 14.7063V14.3086H51.7329L51.731 35.1294Z" fill="black"/>
<path d="M85.1871 31.2606C85.1871 22.335 89.3292 16.9796 95.5749 16.9796C100.177 16.9796 105.568 20.2854 105.568 27.6243V32.1201C105.568 38.5995 101.558 44.3516 95.4434 44.3516C89.0004 44.3516 85.1871 39.1946 85.1871 31.2606ZM78.7441 31.2606C78.7441 41.9715 85.0556 48.0541 93.4053 48.0541C99.6511 48.0541 103.99 44.0211 105.568 39.1946L105.634 47.2607C105.634 55.8558 102.741 60.8143 95.9694 60.8143C91.1044 60.8143 86.1733 57.2441 85.1871 50.6325L78.8098 52.3515C80.7823 61.1451 87.9484 63.7896 94.4573 63.7896C105.042 63.7896 111.42 57.9714 111.485 47.2607V28.8143C111.485 22.7978 111.485 17.6408 112.406 13.6738H111.551C109.184 14.9962 107.146 17.4424 106.357 20.4176C104.779 16.9135 100.309 13.6738 94.2601 13.6738C85.8446 13.6738 78.7441 20.5499 78.7441 31.2606Z" fill="black"/>
<path d="M122.482 31.2606C122.482 22.335 126.624 16.9796 132.87 16.9796C137.472 16.9796 142.863 20.2854 142.863 27.6243V32.1201C142.863 38.5995 138.853 44.3516 132.739 44.3516C126.295 44.3516 122.482 39.1946 122.482 31.2606ZM116.039 31.2606C116.039 41.9715 122.351 48.0541 130.7 48.0541C136.946 48.0541 141.285 44.0211 142.863 39.1946L142.929 47.2607C142.929 55.8558 140.036 60.8143 133.264 60.8143C128.399 60.8143 123.468 57.2441 122.482 50.6325L116.105 52.3515C118.077 61.1451 125.244 63.7896 131.752 63.7896C142.337 63.7896 148.715 57.9714 148.78 47.2607V28.8143C148.78 22.7978 148.78 17.6408 149.701 13.6738H148.846C146.479 14.9962 144.441 17.4424 143.652 20.4176C142.074 16.9135 137.604 13.6738 131.555 13.6738C123.14 13.6738 116.039 20.5499 116.039 31.2606Z" fill="black"/>
<path d="M186.39 13.6289H187.248C186.324 17.6078 186.324 22.7849 186.324 28.8222V40.0345C186.324 44.544 187.248 45.1409 190.152 47.0008V47.4651H180.447L180.381 39.2382C178.797 44.0791 174.442 48.1289 168.166 48.1289C159.78 48.1289 153.441 42.0247 153.441 31.2771C153.441 20.5296 160.569 13.6289 169.024 13.6289C175.096 13.6289 179.589 16.8783 181.174 20.3963C181.966 17.4108 184.013 14.9559 186.39 13.6289ZM180.384 27.6279C180.384 20.267 174.972 16.9466 170.348 16.9466C164.078 16.9466 159.915 22.3181 159.915 31.2771C159.915 39.2348 163.742 44.4132 170.216 44.4132C176.353 44.4132 180.384 38.6439 180.384 32.1391V27.6279Z" fill="black"/>
<path d="M193.707 48.128H192.923C193.773 44.1593 193.773 38.9952 193.773 33.1055V8.28841C193.773 4.58417 191.876 3.32739 189.195 1.73985V1.14453H199.663V22.5834C201.232 17.6886 205.548 13.7151 211.767 13.7151C220.009 13.7151 226.357 19.8039 226.357 30.3921C226.357 41.2455 219.294 48.128 210.85 48.128C204.834 48.128 200.513 44.8869 198.813 41.3117C198.091 44.3556 196.063 46.8044 193.707 48.128ZM199.658 34.2307C199.658 41.3745 205.02 44.7525 209.537 44.7525C215.749 44.7525 219.94 39.4609 219.94 30.3921C219.94 22.5834 216.081 17.4213 209.733 17.4213C203.718 17.4213 199.658 23.2422 199.658 29.7306V34.2307Z" fill="black"/>
<path d="M237.479 40.2367C237.479 44.6007 238.402 45.1958 241.232 46.9844V47.4472H227.993V46.9844C230.825 45.199 231.746 44.604 231.746 40.2367V8.02103C231.746 4.38442 229.77 3.19425 227.27 1.60737V1.14453H237.479V40.2367Z" fill="black"/>
<path d="M273 30.2802H249.172C249.172 39.0368 253.359 44.4766 260.497 44.4766C265.6 44.4766 269.268 41.957 271.298 36.7186L272.671 37.1827C271.166 44.145 266.259 48.1289 258.729 48.1289C249.956 48.1289 242.82 42.0253 242.82 31.2788C242.82 20.5322 249.827 13.6289 258.469 13.6289C267.697 13.6289 273 19.7989 273 30.2802ZM266.651 27.6941C266.519 21.9254 264.819 16.3502 258.402 16.3502C253.103 16.3502 249.891 20.9254 249.304 27.6941H266.651Z" fill="black"/>
</g>
<defs>
<clipPath id="clip0_2940_4467">
<rect width="273" height="63" fill="white" transform="translate(0 0.892578)"/>
</clipPath>
</defs>
</svg>
